<?xml version="1.0" standalone="no"?>
<!DOCTYPE svg PUBLIC "-//W3C//DTD SVG 1.1//EN" "http://www.w3.org/Graphics/SVG/1.1/DTD/svg11.dtd" >
<svg xmlns="http://www.w3.org/2000/svg">
<metadata>
Created by FontForge 20120731 at Tue Jul 18 21:20:57 2017
 By admin
</metadata>
<defs>
<font id="aimsen" horiz-adv-x="1024" >
  <font-face 
    font-family="aimsen"
    font-weight="500"
    font-stretch="normal"
    units-per-em="1024"
    panose-1="2 0 6 3 0 0 0 0 0 0"
    ascent="896"
    descent="-128"
    x-height="792"
    bbox="-0.241379 -212 1082 896"
    underline-thickness="0"
    underline-position="0"
    unicode-range="U+0078-E6E8"
  />
<missing-glyph 
 />
    <glyph glyph-name=".notdef" 
 />
    <glyph glyph-name=".notdef" 
 />
    <glyph glyph-name=".null" horiz-adv-x="0" 
 />
    <glyph glyph-name="nonmarkingreturn" horiz-adv-x="341" 
 />
    <glyph glyph-name="x" unicode="x" horiz-adv-x="1001" 
d="M281 543q-27 -1 -53 -1h-83q-18 0 -36.5 -6t-32.5 -18.5t-23 -32t-9 -45.5v-76h912v41q0 16 -0.5 30t-0.5 18q0 13 -5 29t-17 29.5t-31.5 22.5t-49.5 9h-133v-97h-438v97zM955 310v-52q0 -23 0.5 -52t0.5 -58t-10.5 -47.5t-26 -30t-33 -16t-31.5 -4.5q-14 -1 -29.5 -0.5
t-29.5 0.5h-32l-45 128h-439l-44 -128h-29h-34q-20 0 -45 1q-25 0 -41 9.5t-25.5 23t-13.5 29.5t-4 30v167h911zM163 247q-12 0 -21 -8.5t-9 -21.5t9 -21.5t21 -8.5q13 0 22 8.5t9 21.5t-9 21.5t-22 8.5zM316 123q-8 -26 -14 -48q-5 -19 -10.5 -37t-7.5 -25t-3 -15t1 -14.5
t9.5 -10.5t21.5 -4h37h67h81h80h64h36q23 0 34 12t2 38q-5 13 -9.5 30.5t-9.5 34.5q-5 19 -11 39h-368zM336 498v228q0 11 2.5 23t10 21.5t20.5 15.5t34 6h188q31 0 51.5 -14.5t20.5 -52.5v-227h-327z" />
    <glyph glyph-name="youjian" unicode="&#xe601;" horiz-adv-x="1000" 
d="M500 217l-390 146v-374q0 -6 5 -11t11 -5h748q6 0 11 5t5 11v374zM874 510h-748q-6 0 -11 -4.5t-5 -11.5v-56l390 -146l390 146v56q0 7 -5 11.5t-11 4.5z" />
    <glyph glyph-name="ren" unicode="&#xe640;" horiz-adv-x="1109" 
d="M1078 -56q-91 -53 -174 -145q-6 -6 -13 -1q-62 53 -115 126.5t-90.5 156.5t-63.5 165.5t-43 169.5q-2 6 -9.5 6t-9.5 -6q-41 -232 -164 -386t-343 -241q-7 -3 -11 3t2 11q217 200 302.5 441.5t69.5 558.5q0 4 3 7t8 2l206 -21q7 -1 8 -5.5t-2 -11t-6.5 -12t-6.5 -7.5
q-6 -7 -13.5 -11.5t-12.5 -6t-8.5 -4t-3.5 -6.5q-4 -44 -4 -64q15 -83 45 -163q61 -164 181.5 -311t267.5 -230q4 -3 4 -7.5t-4 -7.5z" />
    <glyph glyph-name="nvsheng" unicode="&#xe649;" 
d="M390 272zM358 272q0 13 9.5 22t22.5 9t22 -9t9 -22t-9 -22.5t-22 -9.5t-22.5 9.5t-9.5 22.5zM653 272zM621 272q0 13 9 22t22.5 9t22.5 -9t9 -22t-9 -22.5t-22.5 -9.5t-22.5 9.5t-9 22.5zM848 367q0 7 -1 13q1 3 1 7q0 9 -3 20q-6 43 -21.5 82t-42.5 75.5t-71 63
t-100 37.5q3 9 3 19q0 32 -24.5 54t-59 22t-59 -22t-24.5 -54q0 -10 3 -20q-62 -12 -109.5 -44t-74.5 -74.5t-40 -88t-14 -91.5q-39 -29 -39 -77q0 -30 17 -54.5t44 -35.5q27 -173 43 -161q6 5 6 27q0 4 -2.5 33.5t-3.5 53.5q20 -37 49 -66q85 -85 204.5 -85t203.5 85
q19 18 34 41q-2 -65 -2 -80q0 -18 11 -1q19 29 41 119q4 17 7 33q29 10 46.5 35t17.5 56q0 49 -40 78zM186 289q0 36 26 60q0 -3 1 -5v0q9 -73 18 -129q-21 10 -33 30t-12 44zM768 153q-36 -63 -99.5 -101t-139.5 -38q-84 0 -153 47t-100 123q2 114 56 160q56 49 79 156
q22 -95 85 -110q91 -21 169 -22q1 -1 3 -1q98 0 106 -78v-1q-3 -73 -6 -135zM827 214q14 64 18 125q1 5 2 11q28 -24 28 -61q0 -24 -13 -44.5t-35 -30.5z" />
    <glyph glyph-name="money" unicode="&#xe6d0;" 
d="M512 832q-187 0 -317.5 -130.5t-130.5 -317.5t130.5 -317.5t317.5 -130.5t317.5 130.5t130.5 317.5t-130.5 317.5t-317.5 130.5zM358.5 601.5q9.5 9.5 22.5 9.5t22 -9l90 -90q9 -10 9 -22.5t-9.5 -22t-22 -9.5t-22.5 9l-90 90q-9 9 -9 22t9.5 22.5zM672 320q14 0 23 -9
t9 -23t-9 -23t-23 -9h-128v-96q0 -14 -9 -23t-23 -9t-23 9t-9 23v96h-128q-14 0 -23 9t-9 23t9 23t23 9h128v64h-128q-14 0 -23 9t-9 23t9 23t23 9h320q14 0 23 -9t9 -23t-9 -23t-23 -9h-128v-64h128zM698 595l-141 -141q-23 -11 -45 0q-10 5 -10 23.5t10 28.5l134 134
q10 10 23 10t22 -10q19 -19 7 -45zM640 576v0v0v0v0z" />
    <glyph glyph-name="i-arrow-left" unicode="&#xe65d;" 
d="M1024 448h-781l359 358l-90 90l-512 -512l512 -512l90 90l-359 358h781v128z" />
    <glyph glyph-name="i-arrow-right_" unicode="&#xe65e;" 
d="M828 777l-393 -393l393 -392l-120 -120l-512 512l512 512z" />
    <glyph glyph-name="i-arrow-top" unicode="&#xe65f;" 
d="M1024 384l-90 -90l-358 359v-781h-128v781l-358 -359l-90 90l512 512z" />
    <glyph glyph-name="i-arrow-right" unicode="&#xe660;" 
d="M0 448h781l-359 358l90 90l512 -512l-512 -512l-90 90l359 358h-781v128z" />
    <glyph glyph-name="i-arrow-right1" unicode="&#xe661;" 
d="M196 -9l393 393l-393 392l120 120l512 -512l-512 -512z" />
    <glyph glyph-name="i-cal" unicode="&#xe662;" 
d="M658 457h147v-146h-147v146zM219 238h147v-147h-147v147zM951 750h-73q0 -3 -1 -8t-6.5 -17.5t-16 -22.5t-33 -17.5t-53.5 -7.5q-1 1 -11.5 -0.5t-27 2.5t-32.5 10t-27.5 22t-11.5 39h-292q0 -3 -1 -8t-6.5 -17.5t-16 -22.5t-33 -17.5t-53.5 -7.5h-11.5t-26.5 4t-33.5 11
t-26.5 22t-12 36h-73q-33 0 -53 -20.5t-20 -52.5v-732q0 -33 20 -53t53 -20h878q33 0 53 20t20 53v732q0 32 -20 52.5t-53 20.5zM951 -55h-878v658h878v-658zM439 238h146v-147h-146v147zM219 457h147v-146h-147v146zM731 896h74v-146h-74v146zM219 750h74v146h-74v-110v-36
zM439 457h146v-146h-146v146z" />
    <glyph glyph-name="i-close" unicode="&#xe663;" 
d="M1024 794l-102 102l-410 -410l-410 410l-102 -102l410 -410l-410 -410l102 -102l410 410l410 -410l102 102l-410 410z" />
    <glyph glyph-name="i-company" unicode="&#xe664;" 
d="M960 -64v512h64v64h-384v256h38l-32 64h-76v64h-455v-64h-77l-38 -64h64v-832h-64v-64h1024v64h-64zM320 640h64v-128h-64v128zM192 384h64v-128h-64v128zM256 0h-64v128h64v-128zM256 512h-64v128h64v-128zM384 0h-64v128h64v-128zM384 256h-64v128h64v-128zM512 0h-64
v128h64v-128zM512 256h-64v128h64v-128zM512 512h-64v128h64v-128zM704 0h-64v128h64v-128zM704 256h-64v128h64v-128zM832 0h-64v128h64v-128zM832 256h-64v128h64v-128z" />
    <glyph glyph-name="i-code" unicode="&#xe665;" 
d="M889 770q-9 -1 -26 -1q-64 0 -121.5 11t-92 24.5t-64.5 31.5t-38 24.5t-12 11.5l-23 24l-23 -24q-5 -5 -12.5 -11.5t-37 -24.5t-64 -31.5t-92.5 -24.5t-122 -11q-17 0 -26 1l-32 1v-462q0 -42 6.5 -79t31 -86.5t66 -92t116.5 -89.5t178 -85l11 -4l11 4q103 38 178.5 85
t116.5 89.5t65.5 92t31 86.5t6.5 79v462zM472 159l-238 219l63 53l126 -97q8 8 20.5 21t51.5 50t78 70t92 71.5t100 62.5l25 -28l-2 -2q-16 -14 -32.5 -29.5t-58.5 -60.5t-77.5 -90t-77.5 -110.5t-70 -129.5z" />
    <glyph glyph-name="i-feedback" unicode="&#xe667;" 
d="M922 896h-820q-42 0 -72 -30t-30 -72v-922l205 205h717q42 0 72 30t30 72v615q0 42 -30 72t-72 30zM922 794v-615h-717q-41 0 -72 -31l-31 -30v676h820zM256 538h102v-103h-102v103zM461 538h102v-103h-102v103zM666 538h102v-103h-102v103z" />
    <glyph glyph-name="i-file" unicode="&#xe668;" 
d="M184 -25q-39 35 -66.5 97.5t-27.5 114.5q0 46 21.5 101.5t51.5 89.5l55 61l54 60l219 243l54 60q26 28 70.5 47.5t81.5 19.5q33 0 73 -15t64 -37q28 -25 48 -69.5t20 -82.5q0 -32 -15.5 -72t-37.5 -64l-137 -151l-55 -62l-190 -211q-15 -16 -42 -28t-49 -12q-20 0 -44 9
t-38 22q-17 15 -29 42t-12 49q0 20 9.5 44t22.5 38l163 182l33 36l104 115q12 11 28 11q17 0 29 -12t12 -29q0 -13 -8 -25l-104 -115l-33 -36l-164 -182q-10 -11 -10 -27q0 -18 13 -30q12 -11 28 -11q18 0 30 14l273 302l27 31l23 25l32 35l27 31q13 14 22.5 38t9.5 43
q0 23 -12 49.5t-29 41.5q-14 13 -38 22.5t-44 9.5q-22 0 -49 -12t-42 -29l-82 -90l-27 -31l-191 -212l-28 -30l-54 -60q-22 -24 -37 -64t-15 -72q0 -14 2 -28q0 -2 0.5 -5t1.5 -5q4 -23 13 -44q1 -4 6 -12q6 -12 13 -23q4 -5 7 -8q12 -17 24 -27q24 -22 64 -37.5t73 -15.5
q37 0 81.5 20t69.5 48l82 91l219 242l27 30l27 30q13 14 31 14q16 0 27 -11q13 -11 14 -28t-11 -29l-27 -31l-27 -30l-301 -333q-35 -39 -97.5 -66.5t-114.5 -27.5q-46 0 -102 21.5t-90 51.5v0z" />
    <glyph glyph-name="i-info" unicode="&#xe669;" 
d="M512 -128q139 0 257 68.5t186.5 186.5t68.5 257t-68.5 257t-186.5 186.5t-257 68.5t-257 -68.5t-186.5 -186.5t-68.5 -257t68.5 -257t186.5 -186.5t257 -68.5zM439 384h146v-293h-146v293zM439 677h146v-147h-146v147z" />
    <glyph glyph-name="i-help" unicode="&#xe66a;" 
d="M512 896q-139 0 -257 -68.5t-186.5 -186.5t-68.5 -257t68.5 -257t186.5 -186.5t257 -68.5t257 68.5t186.5 186.5t68.5 257t-68.5 257t-186.5 186.5t-257 68.5zM496 75q-25 0 -42.5 17.5t-17.5 42.5v0q0 25 17.5 43t42 18t42 -18t17.5 -43v0q0 -25 -17.5 -42.5
t-41.5 -17.5v0zM661 455q-11 -23 -29 -41q-16 -16 -61 -57q-12 -11 -19 -20q-12 -13 -16 -30q-2 -5 -6 -25q-7 -38 -43 -38h-1q-17 0 -29.5 12.5t-12.5 36.5q0 31 9 54q9 22 24.5 39.5t41.5 40.5q22 19 33 31q10 11 17 23q7 13 7 28v0v1q0 12 -6.5 26t-15.5 22
q-21 20 -54 20q-39 0 -57.5 -20t-31.5 -60q-12 -41 -46 -41h-1q-19 0 -33 14q-13 13 -13 31q0 35 21.5 71t63 59t97.5 23q51 0 90.5 -19.5t61 -53t21.5 -73.5q1 -31 -12 -54z" />
    <glyph glyph-name="i-lietou-left" unicode="&#xe66b;" 
d="M0 896h1024l-1024 -1024v1024zM249 719v-25h45v-49h-54v-27h227v27h-55v49h47v25h-47v43h-28v-43h-63v43h-27v-43h-45zM321 645v49h63v-49h-63zM442 588h-176v-180h28v18h121v-19h27v181zM294 452v42h121v-42h-121zM294 519v44h121v-44h-121zM221 759q-17 -28 -39 -52
q-17 26 -40 48l-21 -17q24 -22 42 -50q-24 -22 -53 -37l15 -24q27 16 51 36q0 -2 1.5 -5t2.5 -4q6 -17 9 -38q-29 -51 -80 -86l16 -23q38 28 68 71q2 -26 2 -45q0 -76 -14 -92q-7 -7 -26 -7q-13 0 -30 2l8 -26h12.5h15.5q24 0 38 10q23 19 23 112q-1 86 -18 133q-4 9 -8 17
q25 25 48 62z" />
    <glyph glyph-name="i-password" unicode="&#xe66c;" 
d="M341 486v55q0 68 18.5 125.5t58.5 94.5t94 37t93.5 -37t58.5 -94.5t19 -125.5v-55h-342zM548 9h-70v137q-22 0 -36.5 9.5t-21 25t-8.5 28.5t-2 27q0 114 102 114t102 -114q0 -18 -5.5 -37t-21.5 -36t-39 -17v-137v0zM789 487v68q-1 154 -74 247.5t-203 93.5t-203.5 -94
t-73.5 -247v-68h-167v-615h888v615h-167z" />
    <glyph glyph-name="i-poptips-error" unicode="&#xe66d;" 
d="M560 384l170 167l-51 51l-167 -170l-167 170l-51 -51l170 -167l-170 -167l51 -51l167 170l167 -170l51 51zM529 896q-109 0 -207.5 -40.5t-168.5 -108t-111.5 -158.5t-41.5 -188q0 -109 41 -207.5t111.5 -169t169 -111.5t207.5 -41q97 0 188 41.5t158.5 111.5t108 168.5
t40.5 207.5q0 97 -40.5 188t-108 158.5t-158.5 108t-188 40.5zM529 -60q-96 0 -182.5 35.5t-147 93.5t-96 136t-35.5 162q0 130 60 235.5t165.5 165.5t235.5 60q85 0 163 -35.5t136 -96t93 -147t35 -182.5q0 -83 -35 -161.5t-92.5 -136.5t-136.5 -93.5t-163 -35.5z" />
    <glyph glyph-name="i-phone" unicode="&#xe66e;" 
d="M753 173q0 -25 -17.5 -42.5t-42.5 -17.5h-362v0q-25 0 -42.5 17.5t-17.5 42.5v482q0 25 17.5 42.5t42.5 17.5h362v0q25 0 42.5 -17.5t17.5 -42.5v-482zM512 -68q-25 0 -42.5 18t-17.5 42.5t17.5 42.5t42.5 18t42.5 -18t17.5 -42.5t-17.5 -42.5t-42.5 -18zM271 896
q-50 0 -85 -35.5t-35 -84.5v-784v0q0 -49 35 -84.5t85 -35.5h482v0q50 0 85 35.5t35 84.5v784q0 49 -35 84.5t-85 35.5h-482z" />
    <glyph glyph-name="i-lietou-right" unicode="&#xe66f;" 
d="M0 896l1024 -1024v1024h-1024zM620 420q-13 -9 -39 -9h-27l-9 27q5 0 15.5 -1.5t14.5 -1.5q15 0 27 6q15 15 15 91q0 30 -3 45q-36 -47 -69 -73l-15 25q52 37 81 84q-3 18 -9 42q-3 3 -3 9q-15 -12 -51 -36l-15 24q27 14 54 36q-3 4 -13 16.5t-17 20.5t-15 14l21 18
q26 -25 39 -48q15 15 40 51l24 -15q-14 -21 -49 -63q6 -12 6 -15q19 -45 19 -132q4 -95 -22 -115zM864 408h-27v18h-120v-18h-27v181h174v-181zM888 619h-225v27h54v48h-45v24h45v45h27v-42h63v42h27v-42h48v-24h-48v-48h54v-30zM744 694h63v-48h-63v48zM714 495h120v-42
h-120v42zM714 562h120v-42h-120v42z" />
    <glyph glyph-name="i-poptips" unicode="&#xe670;" 
d="M527 896q-108 0 -206.5 -40.5t-168 -108t-111 -159t-41.5 -189.5q0 -109 41 -206.5t111.5 -168t168 -111.5t206.5 -41q98 0 189.5 41.5t159 111t108 168t40.5 206.5q0 97 -40.5 189t-108 159.5t-159.5 108t-189 40.5zM527 -59q-95 0 -181 35t-147 93t-97 136.5t-36 163.5
q0 128 60 233.5t166 166.5t235 61q85 0 163.5 -35.5t136.5 -96.5t93 -147t35 -182q0 -84 -35 -163t-93 -137t-137 -93t-163 -35v0zM413 131l-12 12h-3l-193 193l48 48l157 -157l340 341l48 -48z" />
    <glyph glyph-name="i-profileset" unicode="&#xe671;" 
d="M736 576v128q0 65 -10.5 102.5t-40 57.5t-67 26t-106.5 6t-106.5 -6t-67 -26t-40 -57.5t-10.5 -102.5v-128h-165q-34 0 -62.5 -19.5t-28.5 -49.5v-557q0 -32 22 -55t54 -23h808q32 0 54 23t22 55v557q0 69 -61 69h-195zM512 832h29h39t30 -2t25 -7t16.5 -14t12.5 -23
t5.5 -34t2.5 -48v-128h-320v128q0 28 2 48t6.5 34.5t11.5 23t17.5 13.5t24 6.5t30.5 2.5t39 0h29zM864 -64h-704q-64 0 -64 64v448q0 64 64 64h704q64 0 64 -64v-448q0 -64 -64 -64zM436 312q0 -34 25 -58v-136v0q0 -21 15 -36t36 -15t36 15t15 36v0v136q25 24 25 58
q0 32 -22.5 54.5t-53.5 22.5t-53.5 -22.5t-22.5 -54.5z" />
    <glyph glyph-name="i-qiye-left" unicode="&#xe673;" 
d="M0 896h1024l-1024 -1024v1024zM276 763q-70 -78 -173 -130l15 -27q105 56 168 132q29 -34 78 -72.5t89 -58.5l15 27q-97 47 -172 129h-20zM283 660v-212h-75v155h-28v-155h-59v-27h326v27h-135v96h106v27h-106v89h-29z" />
    <glyph glyph-name="i-qiye-right" unicode="&#xe674;" 
d="M0 896l1024 -1024v1024h-1024zM867 420h-325v27h60v157h27v-154h76v211h27v-87h105v-27h-105v-97h135v-30zM873 607q-94 47 -165 132q-58 -69 -169 -132l-15 27q99 47 172 129h21q78 -82 171 -129z" />
    <glyph glyph-name="i-resume" unicode="&#xe675;" 
d="M658 896h-562v-1024h832v749zM836 623h-192v192zM160 -64v896h421l-1 -209q0 -27 18.5 -45.5t45.5 -18.5l220 1v-624h-704zM608 384v64h-320v-64h288h32zM288 256h448v64h-448v-64zM288 128h448v64h-448v-64z" />
    <glyph glyph-name="i-status" unicode="&#xe676;" 
d="M512 896q-137 0 -255 -68t-187.5 -186t-69.5 -258q0 -137 69.5 -255t187.5 -187.5t255 -69.5t255 69.5t187.5 187.5t69.5 255q0 140 -69.5 258t-187.5 186t-255 68zM446 150l-227 227l74 73l153 -154l300 307l73 -73z" />
    <glyph glyph-name="i-successful" unicode="&#xe677;" 
d="M512 896q-138 0 -256 -69t-187 -187t-69 -256t69 -256t187 -187t256 -69t256 69t187 187t69 256t-69 256t-187 187t-256 69zM786 550l-366 -361q-8 -7 -16 0l-166 172q-4 4 0 8l23 33q4 4 8 0l135 -105q11 -5 16 0l335 279q4 4 8 0l23 -23h2q-1 -1 -2 -3z" />
    <glyph glyph-name="i-search" unicode="&#xe678;" 
d="M621 152q-98 -64 -218 -64q-82 0 -155.5 31.5t-129.5 87t-87 129.5t-31 156t31 156t87 130t129.5 87t155.5 31t156 -31t130 -87q67 -67 96.5 -155.5t18.5 -179.5t-61 -169l256 -257q23 -22 23 -54t-23 -54l-13 -14q-22 -22 -54 -22t-54 22zM206 690q-82 -82 -82 -198
t82 -198q82 -81 197.5 -81t197.5 81q81 82 81 198t-81 198q-82 81 -197.5 81t-197.5 -81v0z" />
    <glyph glyph-name="i-warn" unicode="&#xe679;" 
d="M512 896q-212 0 -362 -150t-150 -362t150 -362t362 -150t362 150t150 362t-150 362t-362 150zM473 662h77q6 0 11 -5t4 -12l-19 -345q0 -6 -5.5 -11.5t-13.5 -5.5h-32q-16 0 -19 17l-20 345q3 17 17 17zM512 106q-23 0 -39.5 16.5t-16.5 39.5t16.5 39.5t39.5 16.5
t39.5 -16.5t16.5 -39.5t-16.5 -39.5t-39.5 -16.5z" />
    <glyph glyph-name="i-time" unicode="&#xe67a;" 
d="M512 828q90 0 172.5 -35.5t141.5 -94.5t94.5 -141.5t35.5 -172.5t-35.5 -172.5t-94.5 -141.5t-141.5 -94.5t-172.5 -35.5t-172.5 35.5t-141.5 94.5t-94.5 141.5t-35.5 172.5t35.5 172.5t94.5 141.5t141.5 94.5t172.5 35.5zM512 896q-104 0 -199 -40.5t-163.5 -109
t-109 -163.5t-40.5 -199t40.5 -199t109 -163.5t163.5 -109t199 -40.5t199 40.5t163.5 109t109 163.5t40.5 199t-40.5 199t-109 163.5t-163.5 109t-199 40.5zM137 418h68v-68h-68v68zM819 418h68v-68h-68v68zM548 380l-2 311h-68v-341l165 -167l45 51zM478 77h68v-68h-68v68z
" />
    <glyph glyph-name="i-zoomin" unicode="&#xe67b;" 
d="M1012.5 -116.5q-11.5 -11.5 -28 -11.5t-27.5 12l-249 248q-122 -101 -275 -101v0q-118 0 -217.5 58t-157.5 157.5t-58 217t58 217t157.5 157.5t217 58t217 -58t157.5 -157.5t58 -217.5q0 -153 -101 -275l248 -249q12 -11 12 -27.5t-11.5 -28zM787 463q0 96 -47.5 178
t-129 129t-177.5 47t-178 -47t-129 -129t-47 -178t47 -177.5t129 -129t178 -47.5q78 0 145.5 31.5t112.5 82t70.5 113.5t25.5 127zM590 424h-118v-118q0 -16 -11.5 -27.5t-28 -11.5t-28 11.5t-11.5 27.5v118h-118v0q-16 0 -27.5 11.5t-11.5 28t11.5 28t27.5 11.5v0h118v118
q0 16 11.5 27.5t28 11.5t28 -11.5t11.5 -27.5v-118h118v0q16 0 27.5 -11.5t11.5 -28t-11.5 -28t-27.5 -11.5v0z" />
    <glyph glyph-name="i-select" unicode="&#xe67c;" 
d="M0 -128h808q89 0 152.5 63.5t63.5 152.5v808zM609 -20l-178 178l70 70l108 -108l237 232l70 -70l-307 -302v0z" />
    <glyph glyph-name="i-zoomout" unicode="&#xe67d;" 
d="M1012.5 -116.5q-11.5 -11.5 -28 -11.5t-27.5 12l-249 248q-122 -101 -275 -101v0q-118 0 -217.5 58t-157.5 157.5t-58 217t58 217t157.5 157.5t217 58t217 -58t157.5 -157.5t58 -217.5q0 -153 -101 -275l248 -249q12 -11 12 -27.5t-11.5 -28zM787 463q0 96 -47.5 178
t-129 129t-177.5 47t-178 -47t-129 -129t-47 -178t47 -177.5t129 -129t178 -47.5q78 0 145.5 31.5t112.5 82t70.5 113.5t25.5 127zM590 424h-315q-16 0 -27.5 11.5t-11.5 28t11.5 28t27.5 11.5h315v0q16 0 27.5 -11.5t11.5 -28t-11.5 -28t-27.5 -11.5v0z" />
    <glyph glyph-name="i-jobtitle" unicode="&#xe680;" horiz-adv-x="1026" 
d="M83 -24q-30 0 -56 26t-26 56v239h366q0 -31 21.5 -52.5t51.5 -21.5h147q30 0 51.5 21.5t21.5 52.5h366v-239q0 -32 -17.5 -57t-46.5 -25h-879v0zM440 434q-30 0 -51.5 -21.5t-21.5 -52.5h-366v257q0 29 25 46.5t57 17.5h206l5 55q0 30 21.5 51.5t51.5 21.5h293
q30 0 51.5 -21.5t21.5 -51.5v-55h229q31 0 47.5 -16.5t16.5 -47.5v-257h-366q0 31 -21.5 52.5t-51.5 21.5h-147zM440 746q-55 0 -55 -65h257q0 65 -56 65h-146z" />
    <glyph glyph-name="i-industry" unicode="&#xe683;" 
d="M0 834v-896h1024v896h-1024zM960 2h-896v576h896v-576z" />
    <glyph glyph-name="i-message" unicode="&#xe684;" horiz-adv-x="1026" 
d="M1026 676q0 26 -18.5 44.5t-44.5 18.5h-897q-25 0 -43.5 -18.5t-19.5 -44.5l512 -375zM515 223l-39 28l-473 347v-547q0 -26 19 -44t45 -18h895q27 0 45.5 18t18.5 44v547z" />
    <glyph glyph-name="i-quotes-left" unicode="&#xe685;" 
d="M397 -29l-397 -2v300q0 161 28 255q29 93 106 168q77 74 196 117l73 -154q-111 -37 -160 -104q-27 -36 -38.5 -68t-12.5 -83l205 1v-430zM992 -31h-397v300q0 162 31 256q30 92 112 167q84 75 209 117l77 -154q-119 -38 -169 -103q-29 -37 -41 -68t-13 -83h192z" />
    <glyph glyph-name="i-quotes-right" unicode="&#xe686;" 
d="M624 781l400 1v-300q0 -163 -29 -257q-28 -94 -106 -169q-77 -75 -198 -118l-73 155q113 37 161 104q27 36 38.5 68.5t13.5 84.5l-207 -1v432zM32 782h400v-300q0 -165 -31 -258q-30 -94 -113 -168q-82 -74 -210 -118l-78 155q120 37 171 104q29 36 41 67.5t14 83.5h-194
v434z" />
    <glyph glyph-name="i-send" unicode="&#xe687;" 
d="M766 139l-244 73q-11 4 -23.5 5.5t-19.5 1.5h-7l247 296l132 151l3 3l-527 -390l1 -1q-10 12 -24 17l-166 64l791 376zM2 354l290 -112l93 -311l128 227l298 -90l213 772z" />
    <glyph glyph-name="i-new" unicode="&#xe608;" 
d="M355 532.5q-20 -1.5 -36 -17.5q-17 -17 -16.5 -36.5t14.5 -38.5l78 77q-20 17 -40 15.5zM189 895l-189 1v-1024l1023 1023h-834zM299 216l-104 105q-14 13 -25 17q-19 7 -38 -12q-23 -23 -12 -50q6 -15 22 -31l93 -93l-45 -45l-171 172l43 43l25 -25q-4 22 -3 36
q4 24 25 45q27 27 57.5 29.5t63.5 -29.5l116 -116zM466 371q-34 -34 -81.5 -39t-94.5 43q-45 44 -45 91.5t37 85.5q23 23 49 33t55 4q26 -5 49 -22q14 -10 36 -33l-125 -125q27 -25 54 -18q17 4 31 18q16 16 17 33q1 10 -2 21l46 46q13 -17 14 -48q2 -48 -40 -90zM643 560
l-46 -47l-221 124l49 48l150 -96l-99 148l46 46l150 -98l-97 151l47 46l122 -221l-46 -47l-153 99z" />
    <glyph glyph-name="i-arrow-down" unicode="&#xe609;" 
d="M195 639l318 -318l318 318l97 -97l-415 -415l-414 415z" />
    <glyph glyph-name="i-arrow-up" unicode="&#xe60b;" 
d="M831 127l-318 318l-318 -318l-96 97l414 415l415 -415z" />
    <glyph glyph-name="i-profile" unicode="&#xe60d;" 
d="M503 418q87 0 148.5 61t61.5 146.5t-61.5 146t-148.5 60.5t-148.5 -60.5t-61.5 -146t61.5 -146.5t148.5 -61zM590 398h-158q-109 0 -187 -76.5t-78 -184.5v-15q0 -19 8 -32t29 -21t39 -13t55.5 -7t61.5 -2.5t72 -0.5h158q35 0 52.5 0.5t48 1t46 2.5t38 5.5t34.5 9
t24 13.5t17 19t5 25v15q0 108 -78 184.5t-187 76.5z" />
    <glyph glyph-name="i-delete" unicode="&#xe60e;" 
d="M796 39l-629 629l63 63l629 -628zM859 668l-629 -629l-63 64l628 629z" />
    <glyph glyph-name="i-secret" unicode="&#xe60f;" 
d="M334 533h156l-30 -26q17 -16 56 -55l39 32q-10 13 -37 33q-12 10 -18 16h189v-51h52v98h-192q-10 36 -16 48l-61 -6q2 -4 4 -12l10 -30h-204v-98h52v51v0zM650 436q40 -52 63 -87l45 28q-26 35 -65 85zM654 205h-115v95h38q57 -2 71 38q1 3 8 31q2 14 4 20q-8 4 -24 10
q-18 8 -26 10l-6 -38q-4 -28 -39 -26h-77q-20 0 -30 8q109 50 207 121l-35 35q-86 -65 -180 -108v87h-51v-109q-63 -22 -133 -40q9 -21 20 -47q64 19 119 40q17 -32 61 -32h18v-95h-115v73h-53v-116h338v-22h55v142h-55v-77zM290 395q22 -16 30 -24q5 6 43 55q13 19 22 30
l-41 28q-12 -16 -60 -83zM925 559q-34 80 -96 142t-142 96q-84 35 -175 35t-174 -35q-80 -34 -142 -96t-96 -142q-35 -83 -35 -174.5t35 -174.5q34 -80 96 -142t142 -96q83 -35 174.5 -35t174.5 35q80 34 142 96t96 142q35 83 35 174.5t-35 174.5zM866 235
q-29 -69 -82 -122.5t-122 -82.5q-72 -30 -150 -30t-149 30q-69 29 -122.5 82.5t-82.5 122.5q-30 71 -30 149t30 150q29 69 82.5 122t122.5 82q71 31 149 31t150 -31q69 -29 122 -82t82 -122q31 -72 31 -150t-31 -149z" />
    <glyph glyph-name="i-edit" unicode="&#xe610;" 
d="M946 27h-863q-6 0 -10.5 -4.5t-4.5 -10.5v-15q0 -6 4.5 -10.5t10.5 -4.5h863q6 0 10 4.5t4 10.5v15q0 6 -4 10.5t-10 4.5zM288 192l406 412l-31 32l-407 -412l-31 32l406 412l-31 32l-407 -412v1l-72 -169l166 74zM694 668l32 -32l31 32l16 16q20 19 20 47t-19.5 48
t-47.5 20t-47 -20l-16 -16l-32 -32l32 -32zM710 747q7 7 16 7t15.5 -6.5t6.5 -16t-6 -16.5l-16 -16l-32 32z" />
    <glyph glyph-name="i-add" unicode="&#xe611;" 
d="M510.5 832q-90.5 0 -173 -35t-142 -94.5t-95 -142t-35.5 -173t35.5 -173t95 -142.5t142 -95t173 -35t173 35.5t142 95t94.5 142t35 173t-35 173t-94.5 142t-142 94.5t-173 35zM510.5 -12q-108.5 0 -200.5 53.5t-145.5 145.5t-53.5 200.5t53.5 200.5t145.5 145t200.5 53
t200.5 -53t145 -145t53 -200.5t-53 -200.5t-145 -145.5t-200.5 -53.5zM736 404h-210v209q0 10 -6.5 16.5t-16 6.5t-16 -7t-6.5 -16v-209h-210q-9 0 -16 -7t-7 -16.5t7 -16t16 -6.5h210v-210q0 -9 6.5 -16t16 -7t16 7t6.5 16v210h210q9 0 16 6.5t7 16t-6.5 16.5t-16.5 7z" />
    <glyph glyph-name="i-lajitong1" unicode="&#xe613;" 
d="M808 622v-629q0 -28 -13 -50t-35 -22h-478q-24 0 -44.5 23.5t-20.5 48.5v629q0 17 -11.5 23t-23 -0.5t-11.5 -22.5v-637q0 -50 28.5 -81t76.5 -31h473q49 0 77.5 31t28.5 81v637q0 16 -11.5 22.5t-23.5 0.5t-12 -23zM393 80v430q0 16 -11.5 22.5t-23.5 0t-12 -22.5v-430
q0 -13 12 -18.5t23.5 0t11.5 18.5zM998 733h-286v64q0 38 -23 66.5t-58 28.5h-236q-36 0 -58.5 -28.5t-22.5 -66.5v-64h-287q-16 0 -22.5 -12t0 -24t22.5 -12h971q16 0 22.5 12t0 24t-22.5 12zM664 733h-302v64q0 12 9.5 21.5t21.5 9.5h239q12 0 22 -9.5t10 -21.5v-64v0z
M537 80v430q0 16 -12 22.5t-24 0t-12 -22.5v-430q0 -15 12 -20.5t24 1t12 19.5zM680 80v430q0 16 -12 22.5t-24 0t-12 -22.5l-1 -427q0 -16 12.5 -22t24.5 -0.5t12 19.5z" />
    <glyph glyph-name="youjian1" unicode="&#xe6e8;" 
d="M399 412l-224 -267v454zM512 343l-333 280h668zM610 399l213 -254h-620l213 252l96 -81zM849 599v-454l-224 267z" />
    <glyph glyph-name="goutongjilu" unicode="&#xe614;" 
d="M707 171q-29 0 -50 -20.5t-21 -50.5v-88h-352q-29 0 -49.5 21t-20.5 50v598q0 29 20.5 50t49.5 21h458q29 0 49.5 -21t20.5 -50v-510h-105zM707 611q0 7 -5.5 12t-12.5 5h-352q-7 0 -12 -5t-5 -12v-18q0 -7 5 -12t12 -5h352q7 0 12.5 5t5.5 12v18zM707 452q0 8 -5.5 13
t-12.5 5h-352q-7 0 -12 -5t-5 -13v-17q0 -7 5 -12.5t12 -5.5h352q7 0 12.5 5.5t5.5 12.5v17zM707 294q0 7 -5.5 12.5t-12.5 5.5h-352q-7 0 -12 -5.5t-5 -12.5v-18q0 -7 5 -12t12 -5h352q7 0 12.5 5t5.5 12v18zM707 136h83l-118 -122v86q0 15 10 25.5t25 10.5z" />
    <glyph glyph-name="hetong" unicode="&#xe615;" 
d="M645 384q-72 0 -123 -51t-51 -123q0 -73 50.5 -123.5t123.5 -50.5t123.5 50.5t50.5 123.5q2 72 -49.5 123t-124.5 51zM645 72.5q-57 -0.5 -97.5 40t-40.5 97t40.5 97t97.5 40.5t97.5 -40.5t40.5 -97t-40.5 -96.5t-97.5 -40.5zM324 633h369v-37h-369l2 27zM324 542h300
v-37h-300v37zM324 334h98v-36h-98v36zM324 432h232v-36h-232v36zM448 66h-180v640h481l1 -280q5 0 18 -1t18 -1v299q0 7 -6 13.5t-14 6.5h-514q-8 0 -14 -6.5t-6 -13.5v-674q0 -8 6 -14t14 -6h219q-6 7 -10.5 19.5t-8.5 17.5l-4 7v-7v0zM745 240q-3 8 -15 12l-47 7l-22 42
q-4 9 -15.5 9t-17.5 -9l-22 -42l-47 -7q-11 0 -15 -12q-3 -10 5 -18l35 -31l-5 -49q0 -10 7 -18q7 -6 20 -2l42 22l42 -22q3 -3 8 -3q2 0 5.5 1.5t4.5 1.5q7 7 7 17l-7 47l34 32q3 7 3 22zM673 205q-5 -5 -5 -14l2 -22l-17 12q-2 2 -7 2t-8 -2l-20 -10l3 20q0 12 -5 14
l-15 15l22 3q8 0 13 9l10 20l10 -20q2 -5 12 -9l22 -3z" />
    <glyph glyph-name="i-sanjiao-down" unicode="&#xe617;" 
d="M703 511l-192 -257l-192 257h384z" />
    <glyph glyph-name="i-zuzhijiagou" unicode="&#xe618;" 
d="M356 452q-44 19 -70 59.5t-26 90.5q0 69 48.5 117.5t117.5 48.5t117.5 -48.5t48.5 -117.5q0 -50 -26.5 -90.5t-69.5 -59.5q107 -24 179 -108.5t78 -196.5h-654q7 111 79 196t178 109zM564 749q62 -60 62 -147q0 -79 -54 -137q78 -34 133 -99.5t74 -149.5l148 1
q-5 99 -69 174t-159 96q38 18 61.5 53.5t23.5 80.5q0 61 -43 104t-104 43q-41 0 -75 -20z" />
    <glyph glyph-name="i-guanbi-shixin" unicode="&#xe61b;" 
d="M524.5 767q-108.5 0 -200 -53.5t-145 -145t-53.5 -200t53.5 -200.5t145 -145t200 -53t200 53t145 145t53.5 200.5t-53.5 200t-145 145t-200 53.5zM692.5 200.5q-8.5 -8.5 -20 -8.5t-19.5 8l-129 128l-127 -128q-9 -8 -20.5 -8t-20 8.5t-8.5 20t8 19.5l128 128l-128 128
q-8 9 -8 20.5t8.5 20t20 8.5t19.5 -9l128 -127l128 128q9 8 20.5 8t20 -8.5t8.5 -20t-9 -20.5l-127 -128l128 -127q8 -9 8 -20.5t-8.5 -20z" />
    <glyph glyph-name="i-wuziji" unicode="&#xe61c;" 
d="M638 404h-256q-9 0 -15 -6t-6 -15t6 -15t15 -6h256q9 0 15.5 6t6.5 15t-6.5 15t-15.5 6zM766 722h-512q-35 0 -60 -24.5t-25 -59.5v-509q0 -35 25 -60t60 -25h512q36 0 61 25t25 60v508q0 36 -25 60.5t-61 24.5zM809 129v0q0 -18 -12.5 -30t-30.5 -12h-512
q-17 0 -29.5 12t-12.5 30v508q0 18 12.5 30.5t29.5 12.5h512q18 0 30.5 -12.5t12.5 -30.5v-508z" />
    <glyph glyph-name="i-ziji" unicode="&#xe61d;" 
d="M638 404h-106v106q0 9 -6.5 15.5t-15.5 6.5t-15 -6.5t-6 -15.5v-106h-107q-9 0 -15 -6t-6 -15t6 -15t15 -6h107v-106q0 -9 6 -15t15 -6t15.5 6t6.5 15v106h106q9 0 15.5 6t6.5 15t-6.5 15t-15.5 6zM766 722h-512q-35 0 -60 -24.5t-25 -59.5v-509q0 -35 25 -60t60 -25h512
q36 0 61 25t25 60v508q0 36 -25 60.5t-61 24.5zM809 129q0 -18 -12.5 -30t-30.5 -12h-512q-17 0 -29.5 12t-12.5 30v508q0 18 12.5 30.5t29.5 12.5h512q18 0 30.5 -12.5t12.5 -30.5v-508v0z" />
    <glyph glyph-name="xiangshang-copy-copy" unicode="&#xe652;" 
d="M127 322l385 -386l382 382l-45 45l-305 -304v772h-64v-772l-308 308z" />
    <glyph glyph-name="i-qq" unicode="&#xe61e;" 
d="M904 224q-6 94 -96 196q4 8 5.5 25t-6 44.5t-26.5 47.5v3q0 126 -77 209t-190 83t-190.5 -83t-77.5 -209v-3q-19 -20 -26 -47t-5.5 -44.5t4.5 -25.5q-89 -101 -96 -196q-2 -49 13 -70q8 -8 20 -5.5t28 20.5t28 46q15 -55 62 -119q-30 -7 -48.5 -28t-19.5 -43.5t8 -41.5
q27 -45 109 -45q122 0 173 49q6 7 18 7t18 -7q51 -49 173 -49q81 0 109 45q9 19 8 41.5t-19.5 43.5t-48.5 28q47 64 61 119q13 -28 28.5 -46t27.5 -20.5t20 5.5q16 20 13 70z" />
    <glyph glyph-name="i-telephone" unicode="&#xe61f;" 
d="M441.5 315q-182.5 182 -132.5 232l10 10q15 15 22 22.5t17 21.5t12.5 24t3.5 26.5t-6 32.5t-20 38t-33 47q-19 24 -37.5 38t-33.5 20.5t-32.5 4t-28 -6t-27.5 -16.5t-24 -20t-23.5 -24.5t-21.5 -21.5q-20 -20 -24 -59t10 -93.5t44 -117t83.5 -135.5t122.5 -142
t142 -122.5t135.5 -83.5t117 -44t93.5 -10t59 24q5 5 19.5 18.5t21.5 21t19 21.5t16.5 23.5t10 24t2.5 27.5t-8.5 28t-19.5 31t-35 33q-25 20 -47 33t-38 20t-32.5 6t-26.5 -3t-24 -12.5t-21.5 -17.5t-22.5 -22q-7 -6 -10 -10q-50 -49 -232.5 133z" />
    <glyph glyph-name="quanxing" unicode="&#xe620;" 
d="M512 832q-13 0 -30 -30l-117 -242l-268 -42q-27 -5 -32 -21t15 -34l196 -180l-41 -261q-4 -27 10 -36.5t38 3.5l229 132v711zM512 832q14 0 31 -30l116 -242l269 -42q27 -5 32 -21t-15 -34l-196 -180l41 -261q4 -27 -10 -36.5t-38 3.5l-230 132v711z" />
    <glyph glyph-name="zuobanxing" unicode="&#xe621;" 
d="M512 832q-13 0 -30 -30l-117 -242l-268 -42q-27 -5 -32 -21t15 -34l196 -180l-41 -261q-4 -27 10 -36.5t38 3.5l229 132v711z" />
    <glyph glyph-name="youbanxing" unicode="&#xe622;" 
d="M512 832q14 0 31 -30l116 -242l269 -42q27 -5 32 -21t-15 -34l-196 -180l41 -261q4 -27 -10 -36.5t-38 3.5l-230 132v711z" />
    <glyph glyph-name="nvsheng1" unicode="&#xe600;" 
d="M291 239v0q0 -17 12 -29t29 -12t29 12t12 29v0v0q0 17 -12 29t-29 12t-29 -12t-12 -29v0zM632 239v0q0 -17 12 -29t29 -12t28.5 12t11.5 29v0v0q0 17 -11.5 29t-28.5 12t-29 -12t-12 -29v0zM925 362v17v9q1 12 -3 26q-8 55 -28 106t-55.5 97.5t-92 81t-128.5 48.5
q4 13 4 26q0 41 -32 69.5t-77 28.5t-76.5 -28.5t-31.5 -69.5q0 -13 4 -26q-65 -13 -117.5 -43t-87 -69t-58 -86.5t-34 -94t-11.5 -93.5q-50 -38 -50 -100q0 -39 21.5 -70.5t57.5 -45.5q35 -222 55 -209q8 5 8 35q0 5 -3.5 43.5t-4.5 69.5q26 -48 64 -86q53 -53 121 -81.5
t143 -28.5t143 28.5t121 81.5q24 24 44 53q-3 -83 -3 -103q0 -22 12 -5q26 36 55 158q5 22 10 42q37 14 59.5 46t22.5 72q0 64 -52 101v0zM68 261q0 46 34 78q1 -4 1 -7v0q12 -94 24 -167q-27 14 -43 39.5t-16 56.5v0zM822 86q-47 -82 -129 -131t-180 -49q-109 0 -198 60.5
t-130 157.5q3 149 72 208q73 63 103 202q28 -123 110 -142q118 -28 219 -29h3q127 -1 137 -102zM899 164q17 83 23 162q2 6 3 14q35 -32 35 -79q0 -32 -16.5 -58t-44.5 -39z" />
    <glyph glyph-name="i-jiaoyujingli" unicode="&#xe623;" 
d="M431 285q42 -15 83.5 -16t79.5 16q28 12 98 45t108 49v-275q-4 -4 -12 -11.5t-35.5 -26.5t-58 -33.5t-78.5 -26.5t-98 -12q-55 0 -106 11.5t-84.5 27.5t-59.5 32.5t-38 27.5l-12 11v257q36 -15 213 -76zM975 596q22 -10 34 -18.5t14.5 -14.5t-2 -12t-10.5 -9t-16.5 -8.5
t-14.5 -7.5v-166l39 -46l-75 -67l-69 67l41 47v137q-163 -68 -333 -144q-36 -17 -67 -17.5t-66 14.5q-252 94 -389 160q-40 19 -53 33.5t-0.5 28.5t54.5 31q31 11 175.5 67.5t199.5 76.5q36 15 52 20t39 4t48 -14q49 -20 199.5 -81t199.5 -81v0z" />
    <glyph glyph-name="i-paichongchaxun" unicode="&#xe624;" 
d="M859 186q0 82 -58 140t-140 58t-140 -58t-58 -140t58 -140t140 -58t140 58t58 140zM661 27q-66 0 -112.5 46.5t-46.5 112.5t46.5 112.5t112.5 46.5t112.5 -46.5t46.5 -112.5t-46.5 -112.5t-112.5 -46.5zM507 439q83 0 141.5 57.5t58.5 138.5t-58.5 139t-141.5 58
t-141.5 -58t-58.5 -139t58.5 -138.5t141.5 -57.5zM473 364q-99 -5 -182 -52t-131.5 -124.5t-48.5 -168.5h345q-50 73 -50 161q0 104 67 184zM833 40q-11 -16 -12 -17q-2 -2 -4.5 -4t-5.5 -4.5t-5 -3.5l80 -75l27 29z" />
    <glyph glyph-name="i-paixujiantou" unicode="&#xe625;" 
d="M484 -48l-278 289q-5 5 -5 12t5 12l35 37q5 4 11 4q7 0 12 -5l208 -216v729q0 8 4.5 13t11.5 5h50q7 0 11.5 -5t4.5 -13v-729l208 216q5 5 11.5 5t11.5 -5l35 -37q5 -4 5 -11t-5 -12l-278 -289q-12 -12 -29 -12t-29 12z" />
    <glyph glyph-name="i-quxiang" unicode="&#xe626;" 
d="M960 832l-900 -376v-50l375 -100l99 -374h49z" />
    <glyph glyph-name="i-tuijian" unicode="&#xe627;" 
d="M885 474h-239q19 70 25.5 127.5t2.5 93.5t-15 63.5t-22.5 41t-26 22t-20 10t-8.5 1.5v0q-23 0 -36 -8.5t-15.5 -18t-3.5 -21t-2 -13.5q0 -47 -18.5 -94.5t-44.5 -82.5t-52 -63.5t-45 -42.5l-18 -15v-474q0 -21 17.5 -36.5t37 -21t34.5 -5.5h359q5 0 10.5 3t10.5 8
t9.5 11.5t8.5 14t7.5 15t6 14t4.5 11.5t3 8l1 3q39 134 61.5 234.5t25 124t2.5 33.5q0 17 -6.5 29.5t-15 17.5t-17.5 7.5t-15 2.5h-6zM249 474h-143q-13 0 -20.5 -7.5t-8.5 -14.5l-1 -7l30 -478q0 -14 7.5 -21.5t14.5 -8.5l8 -1h124q11 0 17.5 5t7.5 10v5v482q0 16 -9 25
t-18 10z" />
    <glyph glyph-name="i-dizhi" unicode="&#xe628;" 
d="M512 -64q-14 16 -36.5 42t-80.5 100.5t-102 141.5t-80.5 145.5t-36.5 130.5q0 91 45 168.5t122.5 122.5t168.5 45t168.5 -45t122.5 -122.5t45 -168.5q0 -52 -34.5 -128.5t-84 -149.5t-99 -137.5t-84 -105t-34.5 -39.5zM511.5 623q-52.5 0 -89.5 -37.5t-37 -90t37.5 -89.5
t89.5 -37t89.5 37t37.5 89.5t-37.5 90t-90 37.5z" />
    <glyph glyph-name="i-rongzijieduan" unicode="&#xe629;" 
d="M423 484q0 -20 15 -34q11 -10 52 -21v112q-30 -3 -46 -16q-21 -17 -21 -41zM571 355q-11 4 -37 10v-129q23 2 38 8q22 9 33 24t11 32q0 19 -11 32q-10 13 -34 23zM512 832q-91 0 -174 -35.5t-143 -95.5t-95.5 -143t-35.5 -174t35.5 -173.5t95.5 -142.5t143 -95.5
t174 -35.5t174 35.5t142.5 95.5t95 142.5t35.5 173.5t-35.5 174t-95 143t-142.5 95.5t-174 35.5zM199 383h-1q0 -9 -6.5 -15t-15.5 -6t-15 6t-7 15v0v1q0 97 47.5 179.5t130 130.5t179.5 48v0h0.5h0.5q9 0 15.5 -6.5t6.5 -15.5t-6.5 -16t-15.5 -7l-0.5 0.5l-0.5 0.5v-1
q-129 0 -220.5 -91.5t-91.5 -221.5v-1zM647.5 247q-17.5 -27 -50.5 -42q-28 -13 -63 -15v-52h-44v53q-33 4 -55 14q-35 15 -55 45.5t-21 68.5l48 5q3 -29 15.5 -47.5t39.5 -30.5q13 -5 28 -8v139q-44 11 -62 20q-27 15 -40.5 36.5t-13.5 47.5q0 29 16.5 54.5t47.5 38.5
q24 10 52 12v44h44v-45q28 -3 50 -12q33 -14 50.5 -40.5t18.5 -60.5l-48 -4q-4 37 -27 55q-16 14 -44 17v-122q47 -11 65 -20q34 -15 50 -39t16 -55q0 -30 -17.5 -57z" />
    <glyph glyph-name="i-shoucang-dis" unicode="&#xe62a;" 
d="M985 534l-305 36l-141 262q-14 27 -33.5 26.5t-33.5 -27.5l-131 -269l-303 -50q-31 -6 -36.5 -24t17.5 -38l223 -202l-46 -294q-5 -30 11 -40.5t43 4.5l270 144l274 -131v0q28 -14 44 -2.5t10 41.5l-58 291l217 213q22 21 15.5 39t-37.5 21zM731 250l49 -246l-234 112
l-28 13l-27 -15l-229 -122l40 247l5 31l-24 22l-188 169l256 42l31 5l14 28l111 229l120 -223l15 -27l31 -4l256 -30l-181 -178l-23 -22z" />
    <glyph glyph-name="i-shoucang" unicode="&#xe62b;" 
d="M848 -30q6 -30 -9.5 -41.5t-43.5 1.5l-275 132l-270 -145q-27 -14 -43 -3.5t-12 40.5l47 294l-224 202q-23 20 -17 38.5t37 23.5l303 50l131 269q14 28 33.5 28t33.5 -26l141 -263l305 -36q31 -3 37.5 -21t-15.5 -39l-216 -213z" />
    <glyph glyph-name="i-wangzhi" unicode="&#xe62c;" 
d="M922 634q8 26 9.5 55t-4.5 60t-29.5 53.5t-62.5 28.5q-102 13 -249 -84q-29 4 -58 4q-106 2 -181 -35t-136 -116q-51 -67 -63 -176q36 61 120 136t174 111q-8 -6 -21.5 -16.5t-53 -46t-74.5 -72.5t-76 -94t-68 -113v0v-1.5v-1.5q-11 -26 -12 -28q-28 -68 -38.5 -126
t-5.5 -97t20.5 -68.5t35 -45t42.5 -21.5q51 -13 115.5 12t118.5 83q61 -15 123 -11t105.5 15t70.5 26q66 36 109.5 96t54.5 128h-243q-1 -3 -2.5 -8.5t-10 -19t-22 -24t-41.5 -19t-65 -8.5q-34 0 -59 14.5t-37 35t-19.5 41t-8.5 34.5l-1 15h517v16.5t-2 42t-8 60.5t-20 66
t-35 65q-70 95 -176 130q60 44 101 55q100 26 140 -41q10 -19 12 -48t-3 -58t-12 -55t-13 -42l-6 -16q30 44 48 109zM388 46q-49 -40 -95 -54.5t-77 -5t-48 35.5q-48 74 0 229q25 -67 76 -117q61 -61 144 -88zM384 478q0 4 1 11t8 24t17.5 31t33.5 26.5t53 15.5
q134 11 156 -113z" />
    <glyph glyph-name="i-wechat" unicode="&#xe62d;" 
d="M572 351q0 12 9.5 22.5t21.5 10.5q18 0 29 -10t11 -23t-11 -22.5t-29 -9.5q-12 0 -21.5 10t-9.5 22zM746 351q0 12 10 22.5t21 10.5q17 0 28.5 -10t11.5 -23t-11.5 -22.5t-28.5 -9.5q-11 0 -21 10t-10 22zM421 278.5q0 -97.5 78.5 -166t190.5 -68.5q32 0 95 16l87 -49
l-24 81q111 85 111 186q0 97 -80.5 166t-188.5 69q-112 0 -190.5 -68.5t-78.5 -166zM382 756q-86 0 -159 -36.5t-115.5 -100t-42.5 -138.5q0 -128 127 -219l-32 -97l111 57q80 -16 111 -16q13 0 29 1q-10 34 -10 68q0 106 78.5 181t190.5 75q15 0 31 -2q-21 97 -112 162
t-207 65zM279 538q-19 0 -33.5 11t-14.5 29t14.5 29t33.5 11q18 0 28.5 -11t10.5 -29t-10.5 -29t-28.5 -11zM500 538q-18 0 -32.5 11t-14.5 29t14.5 29t32.5 11t29 -11t11 -29t-11 -29t-29 -11z" />
    <glyph glyph-name="i-zixunkefu" unicode="&#xe62e;" 
d="M511 497q-23 0 -39.5 -16.5t-16.5 -40t16.5 -40t39.5 -16.5t39.5 16.5t16.5 40t-16.5 40t-39.5 16.5zM286.5 497q-23.5 0 -39.5 -16.5t-16 -40t16 -40t39.5 -16.5t40 16.5t16.5 40t-16.5 40t-40 16.5zM735 497q-23 0 -39.5 -16.5t-16.5 -40t16.5 -40t39.5 -16.5
t39.5 16.5t16.5 40t-16.5 40t-39.5 16.5zM511 833q-122 0 -225 -52.5t-163 -143t-60 -196.5q0 -91 44.5 -171t123.5 -135v-199l196 120q43 -8 84 -8q122 0 225 52.5t163 143t60 197t-60 197t-163 143t-225 52.5zM511 105q-47 0 -95 10l-132 -79l2 130q-77 46 -122 118.5
t-45 156.5q0 91 52.5 168.5t142.5 122.5t196.5 45t197 -45t143 -122.5t52.5 -169t-52.5 -169t-143 -122t-196.5 -44.5z" />
    <glyph glyph-name="i-beizhu" unicode="&#xe62f;" 
d="M759 -60h-496q-45 0 -76.5 31t-31.5 75v680q0 44 31.5 75t76.5 31h496q45 0 76.5 -31t31.5 -75v-680q0 -44 -31.5 -75t-76.5 -31zM263 785q-25 0 -42.5 -17.5t-17.5 -41.5v-680q0 -24 17.5 -41.5t42.5 -17.5h496q25 0 42.5 17.5t17.5 41.5v680q0 24 -17.5 41.5
t-42.5 17.5h-496zM700 604h-379q-10 0 -17 -7t-7 -17.5t7 -17.5t17 -7h379q11 0 18 7t7 17.5t-7 17.5t-18 7zM700 394h-379q-10 0 -17 -7t-7 -17t7 -17t17 -7h379q11 0 18 7t7 17t-7 17t-18 7zM581 201h-245q-10 0 -17 -7.5t-7 -17.5t7 -17t17 -7h245q10 0 17 7t7 17
t-7 17.5t-17 7.5z" />
    <glyph glyph-name="i-tixing" unicode="&#xe630;" 
d="M511.5 896q-104.5 0 -199 -40.5t-163 -109t-109 -163.5t-40.5 -199t40.5 -199t109 -163.5t163 -109t199 -40.5t199 40.5t163 109t109 163.5t40.5 199t-40.5 199t-109 163.5t-163 109t-199 40.5zM511.5 -39q-114.5 0 -212 56.5t-154 154t-56.5 212.5t56.5 212.5t154 154
t212 56.5t212 -56.5t154 -154t56.5 -212.5t-56.5 -212.5t-154 -154t-212 -56.5zM469 227q0 -1 -45.5 39t-101.5 90.5t-78 72.5q-17 17 -21 35t4.5 30t21.5 19t30.5 4t31.5 -17q18 -18 58 -54t71 -63t29 -26q226 191 266 230q26 26 53 19.5t31.5 -30.5t-14.5 -48
q-26 -26 -110 -101t-157 -140t-69 -60zM28 643q-27 34 -27 79q0 54 38 92t91 38q34 0 63 -16zM997 643q27 34 27 79q0 54 -38 92t-92 38q-33 0 -62 -16z" />
    <glyph glyph-name="i-shuaxin" unicode="&#xe631;" 
d="M700 106q-86 -63 -192 -62q-13 0 -27 2q-2 0 -5.5 0.5t-4.5 0.5q-16 2 -21 3q-3 1 -13 3q-11 3 -19 6q-2 0 -5 1t-5 2q-13 4 -22 8l-5 3q-16 7 -25 12v0l-1 1q-41 23 -74 58l-1 1q-10 10 -20 22l-4 5q-71 94 -71 212h76q3 0 4.5 3t-0.5 6l-127 199q-2 2 -5 2t-4 -2
l-128 -199q-2 -3 -0.5 -6t5.5 -3h76q0 -139 76 -254l0.5 -1t1.5 -2q2 -3 15 -21q1 -1 3 -3.5t3 -4.5q11 -13 25 -28q2 -2 2 -3q43 -44 97 -75q2 -1 3 -2q13 -7 31 -15q1 -1 4 -2.5t4 -1.5q11 -5 28 -11q8 -3 13 -4q9 -3 25 -7q12 -3 17 -4q1 0 3.5 -1t3.5 -1q5 -1 24 -3
q1 0 4 -0.5t5 -0.5q23 -3 43 -3q135 0 246 82q18 12 21.5 34t-8.5 40q-13 19 -34 22.5t-38 -8.5zM942 384q0 139 -75 253q0 1 -1 2t-1 2q-6 9 -19 25q-2 2 -2 3q-66 83 -161 125l-5 3q-14 6 -30 11q-10 4 -12 4q-10 4 -27 8q-14 3 -15 3t-3.5 1t-3.5 1q-4 0 -11 1t-10 2
q-1 0 -6 0.5t-8 0.5q-15 2 -34 2q-1 0 -3 0.5t-3 0.5l-0.5 -0.5l-0.5 -0.5q-135 0 -246 -80q-17 -13 -21 -35t8.5 -40t33.5 -22t39 9q85 62 190 61q14 0 28 -2l9 -1q14 -2 23 -3q2 -1 5.5 -2t4.5 -1q12 -3 22 -6l7 -2q13 -5 25 -10q1 0 2 -1q73 -32 123 -96l0.5 -0.5
l0.5 -0.5q74 -94 74 -215h-76q-3 0 -4.5 -3t0.5 -6l127 -199q2 -2 5 -2t5 2l127 199q2 3 0.5 6t-5.5 3h-76z" />
    <glyph glyph-name="i-paixujiantou-up" unicode="&#xe632;" 
d="M542 820l278 -289q5 -5 5 -12t-5 -12l-35 -36q-5 -5 -11 -5q-7 0 -12 5l-208 216v-729q0 -7 -5 -12.5t-11 -5.5h-50q-7 0 -11.5 5t-4.5 13v729l-208 -216q-5 -5 -11.5 -5t-11.5 5l-35 37q-5 4 -5 11t5 12l278 289q12 12 29 12t29 -12z" />
    <glyph glyph-name="kefu" unicode="&#xe633;" 
d="M895 333v25q3 179 -99 285q-48 50 -116 76q-5 48 -50 80.5t-106.5 32.5t-106.5 -32.5t-50 -80.5q-68 -26 -116 -76q-102 -106 -99 -284v-32q-33 -34 -21 -82q12 -43 53 -58q20 -13 44 -13q24 -107 105 -172t193.5 -65t194 65t105.5 173q1 -1 2 -1q30 0 53 19q31 18 40 52
q14 52 -26 88zM391 502q3 -5 8.5 -13t21 -27t34 -36t47 -36t58.5 -31q30 -11 90 -24q40 -9 60.5 -14.5t48.5 -21.5t46 -40l1 -1v-3q0 -28 -4 -54q-38 -61 -97.5 -98.5t-135.5 -45.5q-12 17 -40 17q-19 0 -32.5 -9t-13.5 -22t13.5 -22t32.5 -9q16 0 29 7.5t16 18.5
q49 6 93 24q63 25 109 74q8 8 14 16q-27 -86 -97 -136.5t-165 -50.5h-2q-123 0 -201 81t-78 209v17q0 7 2 45q25 9 47.5 25.5t36 32t25 33.5t15 25.5t5.5 12.5zM450 242.5q0 -22.5 -15.5 -38t-37.5 -15.5t-37.5 15.5t-15.5 38t15.5 38t37.5 15.5t37.5 -15.5t15.5 -38z
M698 242.5q0 -21.5 -15.5 -37t-37 -15.5t-37 15.5t-15.5 37t15.5 37.5t37 16t37 -16t15.5 -37.5z" />
  </font>
</defs>
</svg>
